<?xml version="1.0" encoding="iso-8859-1"?>
<!-- Generator: Adobe Illustrator 19.0.0, SVG Export Plug-In . SVG Version: 6.00 Build 0)  -->
<svg version="1.1" id="Capa_1" xmlns="http://www.w3.org/2000/svg" xmlns:xlink="http://www.w3.org/1999/xlink" x="0px" y="0px"
	 viewBox="0 0 512 512" style="enable-background:new 0 0 512 512; fill: #62875e" xml:space="preserve">
<g>
	<g>
		<polygon points="256,319.997 240.575,328.105 240.575,455.42 240.575,466.856 240.575,486.809 256,482.031 271.425,486.809
			271.425,466.856 271.425,455.42 271.425,328.105 		"/>
	</g>
</g>
<g>
	<g>
		<polygon points="189.263,355.075 174.259,362.962 159.274,370.84 159.274,512 210.586,496.106 210.586,478.072 210.586,464.707
			210.586,343.869 		"/>
	</g>
</g>
<g>
	<g>
		<polygon points="337.741,362.962 322.737,355.075 301.414,343.869 301.414,464.707 301.414,478.072 301.414,496.106 352.726,512
			352.726,370.84 		"/>
	</g>
</g>
<g>
	<g>
		<polygon points="437.406,131.804 312.06,113.59 256,0 199.94,113.59 74.594,131.804 165.292,220.213 143.879,345.059
			159.274,336.962 174.259,329.084 179.687,326.235 210.586,309.991 218.383,305.892 244.934,291.937 256,286.119 267.066,291.937
			293.617,305.892 301.414,309.991 332.313,326.235 337.741,329.084 352.726,336.962 368.121,345.059 346.708,220.213 		"/>
	</g>
</g>
<g>
</g>
<g>
</g>
<g>
</g>
<g>
</g>
<g>
</g>
<g>
</g>
<g>
</g>
<g>
</g>
<g>
</g>
<g>
</g>
<g>
</g>
<g>
</g>
<g>
</g>
<g>
</g>
<g>
</g>
</svg>
